<svg width="198" height="197" viewBox="0 0 198 197" fill="none" xmlns="http://www.w3.org/2000/svg">
<path d="M83.1615 181.125L80.6166 191.863L78.6838 191.405L79.6472 187.34L79.3711 187.275C79.2505 187.419 79.0839 187.552 78.8713 187.675C78.6586 187.797 78.397 187.876 78.0865 187.91C77.7632 187.952 77.3766 187.92 76.9267 187.813C76.3335 187.673 75.8498 187.412 75.4755 187.032C75.0885 186.659 74.8293 186.204 74.6978 185.665C74.5638 185.136 74.572 184.555 74.7223 183.921L75.7984 179.38L77.7312 179.839L76.6914 184.226C76.5557 184.798 76.5971 185.262 76.8156 185.616C77.0238 185.968 77.3887 186.206 77.9103 186.329C78.5034 186.47 79.0109 186.379 79.4326 186.058C79.852 185.747 80.1453 185.239 80.3125 184.533L81.2287 180.667L83.1615 181.125Z" fill="#B356FF"/>
<path d="M67.2337 176.104C67.9536 176.399 68.5408 176.809 68.9953 177.336C69.4499 177.862 69.7292 178.47 69.8331 179.16C69.937 179.85 69.8299 180.584 69.5116 181.362L69.4161 181.596C69.0978 182.374 68.6599 182.972 68.1023 183.392C67.5448 183.811 66.9194 184.049 66.2261 184.106C65.5328 184.163 64.8262 184.044 64.1064 183.75C63.3866 183.456 62.7994 183.045 62.3448 182.519C61.8902 181.992 61.611 181.384 61.507 180.694C61.4031 180.004 61.5103 179.27 61.8286 178.492L61.9241 178.259C62.2424 177.48 62.6803 176.882 63.2378 176.463C63.7953 176.043 64.4207 175.805 65.114 175.748C65.8073 175.691 66.5139 175.81 67.2337 176.104ZM66.5653 177.738C66.0011 177.508 65.4606 177.497 64.9437 177.705C64.4229 177.924 64.0232 178.373 63.7447 179.054L63.685 179.2C63.4065 179.881 63.3784 180.477 63.6009 180.988C63.8096 181.505 64.2009 181.881 64.7748 182.116C65.339 182.347 65.8816 182.353 66.4024 182.134C66.9193 181.926 67.317 181.481 67.5955 180.8L67.6552 180.654C67.9337 179.973 67.9637 179.372 67.7452 178.851C67.5228 178.34 67.1295 177.969 66.5653 177.738Z" fill="#B356FF"/>
<path d="M58.7254 172.323L53.3122 181.94L51.5813 180.966L56.9945 171.349L58.7254 172.323Z" fill="#B356FF"/>
<path d="M49.6179 166.302C50.1149 166.673 50.4913 167.144 50.747 167.715C50.9881 168.288 51.06 168.912 50.9629 169.587C50.8657 170.262 50.5626 170.941 50.0535 171.623L49.9027 171.826C49.3936 172.508 48.8294 172.992 48.21 173.277C47.5906 173.562 46.975 173.667 46.3631 173.59C45.745 173.523 45.1832 173.3 44.6778 172.923C44.2987 172.64 44.0174 172.358 43.8339 172.077C43.6356 171.798 43.5067 171.531 43.4472 171.277C43.3878 171.023 43.3725 170.789 43.4014 170.574L43.1739 170.404L40.7133 173.702L39.1213 172.514L45.7207 163.67L47.2874 164.839L46.7218 165.597L46.9492 165.767C47.2684 165.638 47.6519 165.589 48.0997 165.622C48.5391 165.648 49.0451 165.875 49.6179 166.302ZM48.1007 167.334C47.6122 166.969 47.0874 166.82 46.5263 166.887C45.959 166.962 45.449 167.303 44.9965 167.909L44.9022 168.035C44.4497 168.642 44.2714 169.223 44.3674 169.78C44.4486 170.339 44.7377 170.804 45.2347 171.175C45.7233 171.539 46.2512 171.684 46.8186 171.609C47.3796 171.543 47.8864 171.206 48.339 170.6L48.4332 170.473C48.8858 169.867 49.0672 169.281 48.9775 168.716C48.8816 168.159 48.5893 167.698 48.1007 167.334Z" fill="#B356FF"/>
<path d="M33.734 151.172C34.2212 151.778 34.5362 152.422 34.6789 153.103C34.8216 153.783 34.7713 154.451 34.5282 155.105C34.2851 155.758 33.8359 156.349 33.1806 156.875L32.9839 157.033C32.3286 157.56 31.6555 157.872 30.9647 157.969C30.2739 158.065 29.6114 157.971 28.9772 157.685C28.343 157.399 27.7823 156.953 27.2951 156.347C26.8079 155.741 26.4929 155.097 26.3503 154.416C26.2076 153.735 26.2578 153.068 26.5009 152.414C26.744 151.761 27.1932 151.17 27.8486 150.644L28.0452 150.486C28.7005 149.959 29.3736 149.647 30.0644 149.55C30.7552 149.454 31.4177 149.548 32.0519 149.834C32.6861 150.12 33.2468 150.566 33.734 151.172ZM32.3578 152.278C31.9759 151.803 31.5083 151.532 30.955 151.464C30.3936 151.403 29.8261 151.603 29.2527 152.063L29.1298 152.162C28.5563 152.623 28.2432 153.131 28.1902 153.686C28.1225 154.239 28.2829 154.757 28.6713 155.241C29.0532 155.716 29.5249 155.984 30.0864 156.045C30.6397 156.113 31.203 155.916 31.7765 155.455L31.8993 155.357C32.4728 154.896 32.7901 154.385 32.8512 153.823C32.9041 153.268 32.7396 152.753 32.3578 152.278Z" fill="#B356FF"/>
<path d="M28.0657 143.803L21.2855 147.698L20.3117 146.003L21.2003 145.493L21.0589 145.247C20.7592 145.274 20.4181 145.197 20.0357 145.016C19.6443 144.841 19.2731 144.449 18.9224 143.838C18.6188 143.309 18.4774 142.779 18.4983 142.245C18.5049 141.708 18.6596 141.207 18.9623 140.743C19.2558 140.283 19.6851 139.891 20.2501 139.566L24.2964 137.242L25.2858 138.964L21.3763 141.21C20.8659 141.503 20.5565 141.851 20.4479 142.253C20.3341 142.645 20.4106 143.074 20.6776 143.539C20.9813 144.067 21.3946 144.375 21.9175 144.463C22.4313 144.555 23.0026 144.421 23.6314 144.06L27.0762 142.081L28.0657 143.803Z" fill="#B356FF"/>
<path d="M18.8329 123.742L12.9079 125.498L13.4722 127.402L11.9003 127.868L11.3359 125.964L9.94531 126.376C9.43139 126.528 8.9785 126.498 8.58661 126.285C8.18167 126.065 7.90604 125.708 7.75972 125.215L7.17743 123.25L8.74939 122.784L9.1346 124.084C9.21821 124.366 9.41116 124.462 9.71346 124.373L10.7715 124.059L10.1892 122.094L11.7612 121.628L12.3435 123.593L18.2686 121.837L18.8329 123.742Z" fill="#B356FF"/>
<path d="M16.1871 111.212C16.3019 111.981 16.2491 112.696 16.0287 113.356C15.8084 114.016 15.4283 114.566 14.8885 115.008C14.3487 115.45 13.6631 115.733 12.8315 115.857L12.582 115.894C11.7504 116.018 11.012 115.948 10.3668 115.683C9.72156 115.418 9.19728 115.002 8.79394 114.435C8.3906 113.868 8.13156 113.2 8.0168 112.431C7.90205 111.662 7.95484 110.947 8.17519 110.288C8.39554 109.628 8.77561 109.077 9.31538 108.635C9.85516 108.193 10.5408 107.91 11.3724 107.786L11.6219 107.749C12.4535 107.625 13.1919 107.696 13.8371 107.961C14.4823 108.226 15.0066 108.642 15.41 109.208C15.8133 109.775 16.0723 110.443 16.1871 111.212ZM14.4408 111.473C14.3508 110.87 14.0841 110.4 13.6406 110.062C13.1866 109.726 12.5958 109.612 11.8682 109.721L11.7123 109.744C10.9847 109.853 10.458 110.133 10.1323 110.585C9.7947 111.029 9.67163 111.557 9.76312 112.171C9.85307 112.774 10.125 113.243 10.5789 113.579C11.0225 113.917 11.6081 114.031 12.3357 113.923L12.4916 113.899C13.2192 113.791 13.7511 113.51 14.0872 113.056C14.4129 112.603 14.5307 112.076 14.4408 111.473Z" fill="#B356FF"/>
<path d="M15.0696 101.976L7.25082 102.069L7.2274 100.115L8.11016 100.104L8.10676 99.8204C7.7901 99.7086 7.55664 99.5222 7.40636 99.2613C7.25596 98.9898 7.17862 98.6754 7.17434 98.3181L7.163 97.3723L8.92853 97.3511L8.94024 98.3285C8.94628 98.8329 9.08787 99.2464 9.36501 99.5689C9.63164 99.8915 10.0434 100.049 10.6004 100.043L15.0458 99.9896L15.0696 101.976Z" fill="#B356FF"/>
<path d="M17.0759 81.4368C16.9398 82.0418 16.663 82.5774 16.2457 83.0436C15.8204 83.4973 15.2798 83.8173 14.6238 84.0037C13.9678 84.19 13.2246 84.1897 12.3941 84.0028L12.148 83.9474C11.3175 83.7605 10.6457 83.4424 10.1328 82.993C9.61991 82.5436 9.27362 82.024 9.09395 81.4342C8.90403 80.8421 8.87829 80.2384 9.01673 79.6232C9.12056 79.1618 9.26349 78.79 9.4455 78.5077C9.61956 78.213 9.81054 77.9866 10.0184 77.8287C10.2263 77.6708 10.4341 77.5614 10.6417 77.5004L10.704 77.2235L6.68983 76.3202L7.12593 74.3823L17.892 76.8051L17.4628 78.7122L16.54 78.5045L16.4777 78.7814C16.7256 79.0203 16.9259 79.3509 17.0787 79.773C17.2337 80.185 17.2328 80.7396 17.0759 81.4368ZM15.5156 80.4716C15.6494 79.8769 15.5717 79.337 15.2823 78.8517C14.9826 78.3641 14.4637 78.0373 13.7255 77.8712L13.5717 77.8365C12.8334 77.6704 12.2296 77.7446 11.7602 78.0591C11.2829 78.3611 10.9762 78.8145 10.8401 79.4195C10.7062 80.0141 10.7891 80.5553 11.0888 81.0428C11.3782 81.5281 11.892 81.8538 12.6302 82.0199L12.784 82.0545C13.5223 82.2207 14.1312 82.1476 14.6108 81.8354C15.0802 81.5209 15.3818 81.0663 15.5156 80.4716Z" fill="#B356FF"/>
<path d="M21.1435 68.0015C20.8573 68.7247 20.4524 69.3048 19.929 69.7419C19.3997 70.1653 18.7946 70.4232 18.1139 70.5154C17.4272 70.594 16.7027 70.4824 15.9405 70.1807L15.7646 70.1111C15.0024 69.8094 14.4027 69.3968 13.9656 68.8734C13.5187 68.3461 13.2521 67.7489 13.1658 67.0817C13.0697 66.4107 13.1648 65.7137 13.451 64.9905C13.7334 64.2772 14.1403 63.7204 14.6716 63.3204C15.1932 62.9165 15.7954 62.6801 16.4782 62.6113C17.1513 62.5386 17.8592 62.6493 18.6018 62.9433L19.2321 63.1927L17.1376 68.4843C17.6437 68.6621 18.1227 68.6369 18.5747 68.4089C19.0266 68.1809 19.3532 67.8128 19.5543 67.3047C19.7593 66.7867 19.7978 66.3611 19.6697 66.0279C19.5417 65.6946 19.366 65.4103 19.1427 65.175L20.5318 63.9785C20.7317 64.2159 20.931 64.5264 21.1295 64.9102C21.322 65.2803 21.4407 65.7229 21.4855 66.238C21.5205 66.7492 21.4065 67.337 21.1435 68.0015ZM15.7655 67.9243L17.1116 64.5236C16.6759 64.3963 16.2711 64.4339 15.8971 64.6363C15.527 64.8289 15.2472 65.1646 15.0576 65.6434C14.8603 66.1418 14.8307 66.5878 14.9688 66.9816C15.1068 67.3753 15.3724 67.6895 15.7655 67.9243Z" fill="#B356FF"/>
<path d="M25.9544 57.8934C25.6753 58.3755 25.3434 58.7601 24.9585 59.0474C24.5646 59.3294 24.1426 59.492 23.6926 59.5351C23.2388 59.5639 22.78 59.444 22.3161 59.1755C21.8522 58.907 21.5288 58.5741 21.3459 58.1768C21.1591 57.7651 21.1016 57.319 21.1734 56.8384C21.2413 56.3434 21.4227 55.8412 21.7175 55.3318L22.7915 53.4762L22.4095 53.2551C22.0911 53.0708 21.774 53.0208 21.458 53.1051C21.133 53.1841 20.8441 53.4419 20.5914 53.8786C20.344 54.3061 20.2598 54.6823 20.3388 55.0074C20.4087 55.3271 20.5799 55.6084 20.8523 55.851L19.4041 57.1258C19.1216 56.8166 18.9078 56.4621 18.7627 56.0624C18.6138 55.6483 18.5688 55.1912 18.6276 54.6909C18.6826 54.1763 18.8786 53.6279 19.2155 53.0458C19.7315 52.1543 20.3623 51.5784 21.1081 51.3179C21.8539 51.0574 22.6498 51.1719 23.4957 51.6616L26.0199 53.1226C26.2928 53.2805 26.5029 53.2321 26.6503 52.9774L26.9662 52.4317L28.3852 53.253L27.7218 54.3991C27.527 54.7356 27.2846 54.9657 26.9945 55.0892C26.7044 55.2128 26.423 55.1956 26.1501 55.0376L26.1364 55.0297L25.9864 55.289C26.0745 55.3885 26.1726 55.5546 26.2808 55.7873C26.38 56.0146 26.4188 56.3042 26.3973 56.6561C26.3758 57.008 26.2281 57.4204 25.9544 57.8934ZM24.7364 56.7877C25.0154 56.3056 25.1099 55.8381 25.0199 55.3853C24.926 54.9181 24.6562 54.5555 24.2105 54.2975L24.0741 54.2185L23.0711 55.9513C22.8869 56.2697 22.8103 56.5593 22.8414 56.8202C22.8726 57.0811 23.0109 57.2826 23.2565 57.4248C23.5021 57.5669 23.7575 57.5872 24.0227 57.4857C24.2879 57.3842 24.5258 57.1515 24.7364 56.7877Z" fill="#B356FF"/>
<path d="M31.1266 49.4012L24.9346 44.6262L26.1284 43.0782L26.8275 43.6173L27.0008 43.3926C26.8217 43.1085 26.7541 42.8175 26.7981 42.5196C26.8484 42.2134 26.9827 41.9187 27.2009 41.6358L27.7785 40.8867L29.1767 41.965L28.5798 42.739C28.2718 43.1385 28.1265 43.5506 28.1439 43.9755C28.153 44.394 28.3781 44.7733 28.8192 45.1134L32.3396 47.8282L31.1266 49.4012Z" fill="#B356FF"/>
<path d="M42.9276 36.3998L35.688 28.0711L37.1872 26.768L44.4267 35.0966L42.9276 36.3998Z" fill="#B356FF"/>
<path d="M48.9854 31.4692L44.4279 25.1154L46.042 23.9577L50.5994 30.3115L48.9854 31.4692ZM44.7021 23.7935C44.4117 24.0018 44.0966 24.0855 43.7569 24.0446C43.4257 23.9976 43.1499 23.8204 42.9294 23.513C42.7088 23.2055 42.6294 22.8874 42.6911 22.5587C42.7613 22.2238 42.9415 21.9522 43.2319 21.7439C43.5308 21.5295 43.8459 21.4458 44.177 21.4928C44.5082 21.5398 44.7841 21.717 45.0046 22.0245C45.2251 22.3319 45.3046 22.65 45.2429 22.9788C45.1812 23.3076 45.001 23.5791 44.7021 23.7935Z" fill="#B356FF"/>
<path d="M56.578 26.4707L53.5433 21.0874L51.8129 22.0629L51.0078 20.6346L52.7381 19.6592L52.0259 18.3958C51.7626 17.9288 51.6909 17.4806 51.8108 17.0511C51.9346 16.6073 52.2208 16.259 52.6694 16.0061L54.4547 14.9996L55.2598 16.4279L54.0788 17.0937C53.8224 17.2382 53.7717 17.4478 53.9265 17.7224L54.4684 18.6837L56.2537 17.6773L57.0589 19.1055L55.2736 20.1119L58.3084 25.4952L56.578 26.4707Z" fill="#B356FF"/>
<path d="M68.0573 21.1498C67.3342 21.4362 66.6342 21.5384 65.9573 21.4561C65.2862 21.3602 64.684 21.0958 64.1507 20.6627C63.6233 20.216 63.2086 19.6116 62.9067 18.8494L62.837 18.6736C62.535 17.9114 62.4252 17.1919 62.5074 16.515C62.5858 15.8282 62.8385 15.225 63.2657 14.7053C63.689 14.1759 64.2622 13.7679 64.9852 13.4815C65.6985 13.1989 66.3828 13.1143 67.0382 13.2277C67.6897 13.3313 68.2743 13.6084 68.7919 14.059C69.3057 14.4998 69.7097 15.0915 70.0039 15.8341L70.2536 16.4643L64.9627 18.5605C65.1796 19.0511 65.5259 19.383 66.0016 19.5563C66.4772 19.7296 66.9691 19.7156 67.4772 19.5143C67.995 19.3092 68.3316 19.0458 68.4868 18.7243C68.642 18.4028 68.729 18.0801 68.7476 17.7562L70.5708 17.9495C70.5346 18.2578 70.4446 18.6156 70.3008 19.023C70.1629 19.4168 69.9216 19.8063 69.5768 20.1916C69.2282 20.5672 68.7217 20.8865 68.0573 21.1498ZM64.4315 17.177L67.8318 15.8298C67.6262 15.4252 67.3217 15.1558 66.9181 15.0218C66.5243 14.8839 66.0881 14.9098 65.6093 15.0995C65.111 15.2969 64.7656 15.5807 64.5731 15.9509C64.3806 16.3211 64.3334 16.7298 64.4315 17.177Z" fill="#B356FF"/>
<path d="M85.7039 14.3353C85.2884 14.3988 84.8941 14.3581 84.5211 14.2131C84.1584 14.0665 83.847 13.8377 83.5868 13.5266C83.337 13.2139 83.1796 12.8446 83.1145 12.4187C83.051 12.0031 83.0873 11.6148 83.2235 11.2538C83.3685 10.8808 83.5973 10.5693 83.91 10.3196C84.2227 10.0698 84.592 9.91231 85.018 9.84721C85.4543 9.78052 85.8538 9.82046 86.2164 9.96704C86.5878 10.1016 86.8933 10.3261 87.1327 10.6403C87.3809 10.9426 87.5383 11.3119 87.605 11.7483C87.6717 12.1846 87.6273 12.5901 87.472 12.9647C87.3254 13.3273 87.0958 13.6335 86.7831 13.8833C86.4688 14.1227 86.1091 14.2734 85.7039 14.3353Z" fill="#B356FF"/>
<path d="M101.438 15.0404L102.295 4.03845L104.276 4.19278L103.951 8.35781L104.234 8.37986C104.331 8.21874 104.475 8.0613 104.666 7.90753C104.857 7.75377 105.104 7.63593 105.405 7.55401C105.718 7.46243 106.105 7.43461 106.566 7.47054C107.174 7.5179 107.692 7.7006 108.121 8.01862C108.56 8.32698 108.887 8.73719 109.1 9.24926C109.314 9.75085 109.395 10.3265 109.345 10.9761L108.982 15.6284L107.002 15.474L107.352 10.9789C107.398 10.3922 107.286 9.94065 107.015 9.6244C106.755 9.30897 106.358 9.13043 105.823 9.08878C105.216 9.04142 104.728 9.20899 104.361 9.5915C103.995 9.96354 103.783 10.511 103.727 11.234L103.418 15.1947L101.438 15.0404Z" fill="#B356FF"/>
<path d="M117.95 17.5438C117.193 17.364 116.549 17.049 116.019 16.5989C115.489 16.1487 115.119 15.5909 114.91 14.9255C114.701 14.26 114.693 13.5183 114.888 12.7003L114.946 12.4549C115.14 11.6369 115.481 10.9778 115.967 10.4776C116.453 9.97741 117.034 9.64562 117.71 9.48225C118.387 9.31887 119.103 9.3271 119.86 9.50693C120.616 9.68675 121.26 10.0017 121.79 10.4519C122.321 10.902 122.69 11.4598 122.899 12.1252C123.109 12.7907 123.116 13.5324 122.922 14.3504L122.863 14.5958C122.669 15.4138 122.329 16.0729 121.842 16.5731C121.356 17.0733 120.775 17.4051 120.099 17.5685C119.423 17.7318 118.706 17.7236 117.95 17.5438ZM118.358 15.826C118.951 15.9669 119.487 15.8944 119.965 15.6084C120.446 15.3122 120.772 14.8062 120.942 14.0905L120.978 13.9371C121.148 13.2214 121.084 12.6282 120.785 12.1575C120.499 11.679 120.055 11.3681 119.451 11.2247C118.858 11.0838 118.321 11.1614 117.841 11.4576C117.362 11.7436 117.038 12.2445 116.868 12.9602L116.831 13.1136C116.661 13.8293 116.724 14.4277 117.02 14.9086C117.319 15.3792 117.765 15.685 118.358 15.826Z" fill="#B356FF"/>
<path d="M126.94 19.9663L130.804 9.62981L132.665 10.3254L128.8 20.6619L126.94 19.9663Z" fill="#B356FF"/>
<path d="M136.867 24.5101C136.319 24.2204 135.874 23.8131 135.533 23.2883C135.207 22.7591 135.039 22.1536 135.031 21.4717C135.023 20.7898 135.218 20.0726 135.615 19.3199L135.733 19.0969C136.131 18.3442 136.614 17.7791 137.182 17.4017C137.75 17.0242 138.342 16.826 138.958 16.8069C139.579 16.7786 140.169 16.9117 140.726 17.2063C141.144 17.4272 141.466 17.6625 141.691 17.912C141.93 18.1571 142.098 18.4007 142.196 18.6427C142.294 18.8846 142.345 19.1138 142.35 19.3302L142.601 19.4627L144.523 15.8248L146.279 16.7528L141.124 26.5097L139.395 25.5965L139.837 24.7601L139.586 24.6276C139.291 24.8043 138.919 24.9111 138.472 24.9481C138.034 24.99 137.499 24.8439 136.867 24.5101ZM138.207 23.2567C138.746 23.5415 139.287 23.6077 139.831 23.4554C140.38 23.2938 140.832 22.8785 141.185 22.2094L141.259 22.07C141.612 21.401 141.699 20.7988 141.518 20.2635C141.351 19.7238 140.994 19.3091 140.446 19.0194C139.907 18.7346 139.363 18.673 138.814 18.8346C138.27 18.987 137.821 19.3977 137.467 20.0667L137.394 20.2061C137.04 20.8751 136.951 21.482 137.127 22.0266C137.308 22.5619 137.668 22.9719 138.207 23.2567Z" fill="#B356FF"/>
<path d="M154.895 37.0081C154.321 36.4843 153.91 35.8971 153.664 35.2464C153.418 34.5957 153.365 33.9286 153.504 33.2451C153.643 32.5617 153.996 31.9092 154.562 31.2876L154.732 31.1012C155.298 30.4797 155.915 30.0678 156.583 29.8656C157.25 29.6634 157.92 29.6546 158.59 29.8391C159.261 30.0237 159.884 30.3778 160.459 30.9016C161.034 31.4254 161.444 32.0126 161.69 32.6633C161.936 33.3139 161.99 33.981 161.85 34.6645C161.711 35.348 161.358 36.0005 160.792 36.622L160.622 36.8085C160.056 37.43 159.439 37.8419 158.771 38.044C158.104 38.2462 157.435 38.2551 156.764 38.0705C156.093 37.886 155.47 37.5318 154.895 37.0081ZM156.085 35.7029C156.535 36.1134 157.039 36.3094 157.596 36.2909C158.16 36.2647 158.69 35.9796 159.186 35.4358L159.292 35.3192C159.787 34.7754 160.018 34.2253 159.985 33.6689C159.966 33.1118 159.728 32.6244 159.27 32.2068C158.819 31.7963 158.312 31.6041 157.747 31.6304C157.19 31.6489 156.664 31.93 156.169 32.4739L156.062 32.5904C155.567 33.1342 155.332 33.6883 155.359 34.2524C155.392 34.8089 155.634 35.2923 156.085 35.7029Z" fill="#B356FF"/>
<path d="M161.633 43.4137L167.731 38.5192L168.954 40.0437L168.155 40.6851L168.333 40.9064C168.625 40.8338 168.974 40.857 169.379 40.9762C169.793 41.0887 170.221 41.4196 170.661 41.9688C171.043 42.4441 171.264 42.9469 171.326 43.4769C171.402 44.0086 171.327 44.5274 171.1 45.0333C170.88 45.5326 170.517 45.9862 170.009 46.3941L166.369 49.315L165.126 47.7659L168.642 44.9437C169.101 44.5753 169.353 44.1842 169.399 43.7705C169.451 43.365 169.309 42.9533 168.973 42.5353C168.592 42.0599 168.136 41.8194 167.606 41.8136C167.084 41.8014 166.54 42.0222 165.974 42.4761L162.876 44.9628L161.633 43.4137Z" fill="#B356FF"/>
<path d="M173.851 61.8102L179.434 59.1612L178.582 57.3666L180.064 56.6638L180.915 58.4583L182.226 57.8366C182.71 57.6069 183.162 57.5668 183.582 57.7165C184.016 57.8712 184.343 58.1812 184.564 58.6465L185.443 60.498L183.961 61.2008L183.38 59.976C183.254 59.7101 183.049 59.6447 182.764 59.7799L181.767 60.2529L182.645 62.1045L181.164 62.8073L180.285 60.9558L174.702 63.6048L173.851 61.8102Z" fill="#B356FF"/>
<path d="M178.398 73.7817C178.166 73.0394 178.108 72.3253 178.224 71.6393C178.34 70.9534 178.63 70.3506 179.095 69.8308C179.561 69.3109 180.194 68.9256 180.997 68.6747L181.238 68.5994C182.04 68.3485 182.781 68.3042 183.459 68.4665C184.137 68.6288 184.72 68.9588 185.206 69.4566C185.691 69.9543 186.05 70.5743 186.283 71.3166C186.515 72.0589 186.573 72.773 186.457 73.4589C186.341 74.1449 186.05 74.7477 185.585 75.2675C185.12 75.7874 184.486 76.1727 183.684 76.4236L183.443 76.4989C182.641 76.7498 181.9 76.7941 181.222 76.6318C180.543 76.4695 179.961 76.1395 179.475 75.6417C178.989 75.144 178.63 74.5239 178.398 73.7817ZM180.083 73.2548C180.265 73.8366 180.601 74.26 181.092 74.5252C181.592 74.7872 182.193 74.8084 182.896 74.5889L183.046 74.5419C183.748 74.3223 184.225 73.9639 184.477 73.4667C184.742 72.9764 184.782 72.4353 184.597 71.8435C184.415 71.2617 184.074 70.8398 183.574 70.5778C183.084 70.3127 182.487 70.2899 181.785 70.5094L181.635 70.5564C180.933 70.776 180.451 71.1359 180.189 71.6363C179.937 72.1335 179.902 72.673 180.083 73.2548Z" fill="#B356FF"/>
<path d="M180.928 82.7351L188.638 81.436L188.963 83.3637L188.093 83.5103L188.14 83.7902C188.47 83.8518 188.729 83.9999 188.918 84.2346C189.108 84.4796 189.233 84.7783 189.293 85.1306L189.45 86.0634L187.709 86.3567L187.546 85.3929C187.463 84.8954 187.259 84.5088 186.935 84.2329C186.622 83.9552 186.191 83.8627 185.642 83.9552L181.258 84.6938L180.928 82.7351Z" fill="#B356FF"/>
<path d="M182.115 103.338C182.156 102.719 182.347 102.147 182.687 101.622C183.037 101.108 183.522 100.708 184.141 100.423C184.761 100.138 185.495 100.023 186.344 100.08L186.596 100.097C187.446 100.153 188.158 100.364 188.734 100.729C189.311 101.094 189.733 101.553 190.001 102.109C190.28 102.664 190.399 103.257 190.357 103.886C190.326 104.358 190.242 104.747 190.106 105.054C189.979 105.372 189.825 105.625 189.644 105.813C189.463 106.002 189.275 106.142 189.079 106.234L189.06 106.517L193.166 106.79L193.034 108.772L182.023 108.04L182.153 106.089L183.097 106.152L183.115 105.869C182.834 105.671 182.585 105.375 182.369 104.982C182.152 104.599 182.067 104.051 182.115 103.338ZM183.805 104.05C183.765 104.659 183.925 105.18 184.286 105.615C184.657 106.05 185.22 106.293 185.975 106.344L186.132 106.354C186.887 106.404 187.473 106.238 187.888 105.855C188.313 105.483 188.546 104.987 188.587 104.369C188.628 103.76 188.462 103.238 188.091 102.803C187.73 102.368 187.172 102.126 186.417 102.075L186.26 102.065C185.505 102.015 184.914 102.181 184.489 102.563C184.073 102.947 183.846 103.442 183.805 104.05Z" fill="#B356FF"/>
<path d="M180.169 117.24C180.34 116.481 180.651 115.845 181.1 115.333C181.558 114.833 182.116 114.485 182.774 114.288C183.441 114.105 184.174 114.103 184.973 114.284L185.158 114.325C185.958 114.506 186.614 114.821 187.126 115.271C187.649 115.723 188.005 116.272 188.193 116.917C188.391 117.566 188.405 118.269 188.234 119.028C188.065 119.776 187.749 120.389 187.286 120.866C186.833 121.346 186.274 121.672 185.61 121.845C184.956 122.021 184.24 122.021 183.461 121.845L182.799 121.696L184.052 116.144C183.525 116.047 183.055 116.146 182.644 116.441C182.233 116.736 181.967 117.15 181.847 117.683C181.724 118.226 181.752 118.653 181.93 118.962C182.108 119.272 182.325 119.526 182.582 119.724L181.394 121.12C181.16 120.916 180.915 120.64 180.66 120.292C180.412 119.956 180.227 119.537 180.103 119.035C179.99 118.535 180.012 117.937 180.169 117.24ZM185.494 116.486L184.689 120.054C185.139 120.112 185.533 120.013 185.872 119.755C186.208 119.508 186.432 119.133 186.546 118.63C186.664 118.108 186.624 117.662 186.427 117.295C186.23 116.927 185.919 116.657 185.494 116.486Z" fill="#B356FF"/>
<path d="M176.975 127.969C177.177 127.45 177.445 127.018 177.781 126.675C178.127 126.336 178.519 126.11 178.957 125.998C179.401 125.9 179.873 125.947 180.372 126.141C180.872 126.335 181.243 126.614 181.485 126.978C181.733 127.356 181.859 127.788 181.862 128.274C181.871 128.773 181.77 129.297 181.557 129.846L180.782 131.845L181.194 132.005C181.537 132.138 181.858 132.138 182.157 132.006C182.466 131.878 182.711 131.579 182.894 131.108C183.072 130.648 183.097 130.263 182.969 129.954C182.851 129.649 182.638 129.397 182.332 129.2L183.566 127.717C183.893 127.979 184.158 128.296 184.363 128.668C184.575 129.055 184.69 129.499 184.709 130.003C184.734 130.52 184.625 131.092 184.382 131.719C184.009 132.679 183.475 133.346 182.778 133.718C182.082 134.09 181.278 134.1 180.366 133.747L177.647 132.693C177.353 132.579 177.153 132.659 177.046 132.934L176.819 133.522L175.29 132.929L175.768 131.694C175.909 131.332 176.113 131.067 176.38 130.9C176.648 130.733 176.929 130.707 177.223 130.821L177.237 130.827L177.346 130.547C177.243 130.462 177.121 130.314 176.978 130.1C176.845 129.891 176.762 129.611 176.729 129.26C176.696 128.909 176.778 128.479 176.975 127.969ZM178.349 128.874C178.148 129.393 178.127 129.869 178.286 130.303C178.451 130.75 178.773 131.067 179.253 131.253L179.4 131.31L180.124 129.443C180.257 129.1 180.288 128.802 180.217 128.549C180.146 128.296 179.978 128.118 179.713 128.016C179.449 127.913 179.193 127.933 178.947 128.074C178.701 128.215 178.501 128.482 178.349 128.874Z" fill="#B356FF"/>
<path d="M173.176 137.158L180.03 140.92L179.09 142.634L178.316 142.209L178.179 142.458C178.4 142.711 178.512 142.988 178.514 143.289C178.512 143.599 178.424 143.911 178.252 144.224L177.797 145.053L176.25 144.204L176.72 143.347C176.963 142.905 177.043 142.475 176.96 142.058C176.886 141.646 176.605 141.306 176.117 141.038L172.22 138.899L173.176 137.158Z" fill="#B356FF"/>
<path d="M163.522 151.824L171.96 158.936L170.68 160.455L162.242 153.343L163.522 151.824Z" fill="#B356FF"/>
<path d="M158.298 157.631L163.781 163.205L162.365 164.598L156.882 159.024L158.298 157.631ZM163.714 164.553C163.969 164.303 164.267 164.172 164.609 164.159C164.944 164.155 165.244 164.287 165.509 164.557C165.774 164.827 165.902 165.129 165.892 165.463C165.874 165.805 165.738 166.101 165.483 166.352C165.221 166.61 164.922 166.741 164.588 166.746C164.253 166.75 163.953 166.618 163.688 166.348C163.423 166.078 163.295 165.776 163.305 165.442C163.316 165.108 163.452 164.811 163.714 164.553Z" fill="#B356FF"/>
<path d="M151.567 163.741L155.396 168.591L156.955 167.361L157.971 168.647L156.412 169.878L157.311 171.017C157.643 171.437 157.783 171.869 157.731 172.312C157.677 172.77 157.448 173.158 157.044 173.477L155.435 174.747L154.419 173.46L155.484 172.62C155.714 172.438 155.732 172.223 155.537 171.975L154.853 171.109L153.245 172.379L152.229 171.092L153.837 169.822L150.008 164.972L151.567 163.741Z" fill="#B356FF"/>
<path d="M141.047 170.769C141.717 170.375 142.393 170.166 143.074 170.143C143.752 170.134 144.388 170.302 144.982 170.648C145.572 171.008 146.075 171.541 146.49 172.247L146.586 172.41C147.002 173.117 147.222 173.811 147.245 174.492C147.274 175.183 147.117 175.818 146.775 176.397C146.439 176.986 145.935 177.477 145.265 177.872C144.604 178.261 143.941 178.45 143.276 178.439C142.616 178.437 141.996 178.254 141.415 177.889C140.839 177.532 140.349 177.01 139.944 176.322L139.6 175.738L144.504 172.85C144.214 172.399 143.82 172.124 143.324 172.027C142.827 171.929 142.343 172.018 141.872 172.296C141.392 172.578 141.1 172.89 140.996 173.232C140.893 173.574 140.857 173.906 140.888 174.229L139.057 174.319C139.045 174.009 139.079 173.642 139.158 173.217C139.234 172.806 139.412 172.384 139.693 171.951C139.98 171.526 140.431 171.132 141.047 170.769ZM145.242 174.135L142.09 175.991C142.356 176.359 142.698 176.578 143.118 176.648C143.528 176.724 143.955 176.631 144.399 176.369C144.861 176.098 145.158 175.764 145.291 175.368C145.424 174.973 145.408 174.562 145.242 174.135Z" fill="#B356FF"/>
<path d="M124.663 180.225C125.064 180.098 125.459 180.078 125.85 180.163C126.231 180.252 126.574 180.43 126.879 180.698C127.174 180.968 127.387 181.309 127.517 181.719C127.644 182.12 127.668 182.509 127.589 182.887C127.503 183.278 127.325 183.621 127.055 183.916C126.784 184.211 126.444 184.424 126.033 184.554C125.612 184.687 125.211 184.709 124.83 184.62C124.443 184.545 124.106 184.37 123.821 184.096C123.529 183.836 123.317 183.495 123.184 183.075C123.05 182.654 123.032 182.246 123.127 181.852C123.216 181.471 123.396 181.133 123.666 180.838C123.94 180.553 124.272 180.349 124.663 180.225Z" fill="#B356FF"/>
</svg>
