<svg width="36" height="36" viewBox="0 0 36 36" fill="none" xmlns="http://www.w3.org/2000/svg">
<path d="M19.695 33.285L17.25 27.54C19.605 26.67 21.81 25.5 23.85 24.135L19.695 33.285ZM8.45997 18.75L2.71497 16.305L11.865 12.15C10.5 14.19 9.32997 16.395 8.45997 18.75ZM28.83 6C29.25 6 29.625 6 29.94 6.075C30.195 8.16 29.91 12.45 24.99 17.37C22.44 19.935 19.395 21.9 15.975 23.205L12.75 20.055C14.13 16.59 16.095 13.545 18.63 11.01C22.77 6.87 26.46 6 28.83 6ZM28.83 3C25.86 3 21.36 4.035 16.5 8.895C13.215 12.18 11.25 15.795 9.97497 18.96C9.55497 20.085 9.83997 21.315 10.665 22.155L13.86 25.335C14.43 25.905 15.195 26.25 15.99 26.25C16.335 26.25 16.695 26.16 17.04 26.025C20.25 24.795 23.82 22.785 27.105 19.5C35.595 11.01 32.415 3.585 32.415 3.585C32.415 3.585 31.05 3 28.83 3ZM21.81 14.19C20.64 13.02 20.64 11.115 21.81 9.945C22.98 8.775 24.885 8.775 26.055 9.945C27.21 11.115 27.225 13.02 26.055 14.19C24.885 15.36 22.98 15.36 21.81 14.19ZM13.32 24.795L11.205 22.68L13.32 24.795ZM9.35997 33L14.82 27.54C14.31 27.405 13.815 27.18 13.365 26.865L7.24497 33H9.35997ZM2.99997 33H5.11497L12.27 25.86L10.14 23.745L2.99997 30.885V33ZM2.99997 28.755L9.13497 22.635C8.81997 22.185 8.59497 21.705 8.45997 21.18L2.99997 26.64V28.755Z" fill="white"/>
</svg>
